<svg width="330" height="59" viewBox="0 0 330 59" fill="none" xmlns="http://www.w3.org/2000/svg">
<g clip-path="url(#clip0)">
<path d="M7.35736 30.949C6.00641 30.8753 4.53264 30.7402 3.10801 30.2244C0.516642 29.291 -0.465866 27.4734 0.197327 24.8083C0.627174 23.0644 1.49915 21.5169 2.48166 20.0432C4.80283 16.543 7.62755 13.4604 10.6365 10.562C13.105 8.19166 15.6718 5.93189 18.2018 3.61072C18.3123 3.50019 18.4351 3.40194 18.5948 3.26684C17.9439 2.1738 17.293 1.10532 16.6298 0C20.744 0 24.8092 0 28.9603 0C27.4374 4.31076 25.9513 8.52326 24.4284 12.8586C23.6547 11.5813 22.9178 10.39 22.181 9.16189C22.1073 9.19873 22.0459 9.21102 21.9844 9.24786C17.6246 12.2199 13.3629 15.2903 9.45747 18.8519C7.86089 20.3134 6.338 21.8485 5.09759 23.6293C4.40983 24.6241 3.80805 25.668 3.59926 26.8962C3.36592 28.2471 3.84489 29.3156 5.01162 29.9665C5.78534 30.4086 6.64504 30.6543 7.35736 30.949Z" fill="#0F0B4A"/>
<path d="M55.0328 24.2188C56.4206 24.5381 57.6979 24.8943 58.8523 25.5943C60.6331 26.6751 61.1735 28.2471 60.4243 30.1998C59.712 32.0298 58.4593 33.4667 57.1084 34.8299C54.124 37.8511 50.6975 40.3442 47.1727 42.69C45.4534 43.8321 43.6848 44.9129 41.9409 46.0305C41.8304 46.1042 41.7075 46.1779 41.5724 46.2761C41.9777 47.2955 42.3707 48.3025 42.8006 49.3833C39.2636 48.7692 35.8125 48.1675 32.2632 47.5534C34.1545 44.1146 36.009 40.7372 37.9372 37.2493C38.4284 38.4652 38.8828 39.5828 39.3618 40.7618C40.5531 40.1969 41.7075 39.6565 42.8497 39.0915C46.4973 37.2862 50.1203 35.4194 53.3871 32.9631C54.4924 32.1403 55.4995 31.1701 56.4697 30.1998C56.9241 29.7454 57.2803 29.1314 57.5628 28.5418C58.1891 27.2277 57.8821 26.0733 56.7031 25.2013C56.2118 24.8329 55.6346 24.5627 55.0328 24.2188Z" fill="#0F0B4A"/>
<path d="M44.7778 15.5728C44.7778 19.9695 44.7778 24.2434 44.7778 28.5296C44.7655 28.5296 44.7532 28.5419 44.7409 28.5419C44.1514 26.0856 43.5619 23.6293 42.9601 21.1116C37.2739 26.0487 30.7156 28.984 23.4819 30.642C26.5768 39.5828 28.3453 48.6464 26.8961 58.1154C26.5522 47.6516 24.3048 37.6423 19.6133 28.198C29.3524 26.7242 37.8511 22.8188 44.7778 15.5728Z" fill="#635BFF"/>
<path d="M37.0529 13.2025C37.1757 14.5166 37.2862 15.6956 37.409 16.8869C37.4459 17.243 37.3108 17.4641 37.0529 17.6851C34.1422 20.1783 30.8017 21.8854 27.2278 23.1626C23.2978 24.575 19.2326 25.4224 15.0938 25.9014C15.0201 25.9137 14.9587 25.9259 14.7991 25.9628C18.7045 32.521 21.824 39.3495 22.9907 46.9271C20.1292 38.2687 15.9904 30.3349 9.67773 23.5311C10.6111 23.4574 11.4708 23.4083 12.3305 23.3223C19.7362 22.5486 26.7857 20.6941 33.0369 16.4693C34.3019 15.6219 35.4195 14.5657 36.6107 13.6077C36.7336 13.4972 36.8564 13.3744 37.0529 13.2025Z" fill="#635BFF"/>
<path d="M71.7969 15.8061C71.7969 14.8481 72.1285 14.0253 72.8039 13.3252C73.4671 12.6252 74.29 12.269 75.2357 12.269H95.856V17.9922H78.4902V25.1522H91.4716V27.3505C91.4716 28.3085 91.1277 29.1191 90.4154 29.7823C89.7154 30.4454 88.8925 30.7893 87.9346 30.7893H78.4779V45.4901H71.7969V15.8061Z" fill="#635BFF"/>
<path d="M121.819 35.1983C121.819 39.6564 120.677 42.5794 118.38 43.9795C116.083 45.3181 113.541 45.9813 110.741 45.9813C108.064 45.9813 105.62 45.2445 103.384 43.783C101.162 42.3829 100.044 39.5213 100.044 35.186V19.6255H106.541V36.5247C106.541 39.3862 108.002 40.8232 110.938 40.8232C113.86 40.8232 115.334 39.3862 115.334 36.5247V22.8801C115.273 20.7186 116.317 19.6378 118.491 19.6378H121.831V35.1983H121.819Z" fill="#635BFF"/>
<path d="M144.613 45.5024C142.452 45.3796 141.371 44.2988 141.371 42.2601V28.984C141.248 26.3067 139.75 24.968 136.888 24.968C134.027 24.968 132.565 26.3067 132.492 28.984V45.5024H125.909V30.3227C125.909 22.9416 129.605 19.2449 136.986 19.2449C144.368 19.2449 148.027 22.9416 147.966 30.3227V45.5024H144.613Z" fill="#635BFF"/>
<path d="M172.762 12.2813C173.658 12.2813 174.42 12.6006 175.058 13.2393C175.697 13.8779 176.016 14.6393 176.016 15.5359V19.0729V34.3509C176.016 42.1127 171.976 45.9691 163.895 45.9077C155.875 45.7848 151.859 41.425 151.859 32.828C151.859 24.0468 155.298 19.5273 162.175 19.2694C165.417 19.2694 167.874 20.6081 169.532 23.2854V12.2813H172.762ZM164.079 25.0662C160.579 25.0662 158.736 27.547 158.54 32.5087C158.479 37.7283 160.296 40.3442 163.981 40.3442C167.677 40.3442 169.519 37.7406 169.519 32.5087C169.397 27.5593 167.579 25.0662 164.079 25.0662Z" fill="#635BFF"/>
<path d="M203.011 37.5809C202.249 40.5039 200.972 42.6409 199.191 43.9795C197.091 45.3796 194.61 46.0796 191.749 46.0796C183.913 45.8217 180.008 41.3022 180.008 32.521C180.008 23.7398 183.95 19.3186 191.847 19.2449C200.063 19.2449 203.907 24.3048 203.404 34.4246H186.689C186.947 38.3669 188.666 40.3442 191.847 40.3442C193.37 40.3442 194.77 39.7425 196.047 38.5266C196.624 37.888 197.349 37.5687 198.246 37.5687H203.011V37.5809ZM196.526 29.7454C196.145 26.3067 194.549 24.5873 191.749 24.5873C188.949 24.5873 187.291 26.3067 186.787 29.7454H196.526Z" fill="#635BFF"/>
<path d="M228.298 12.2813C229.195 12.2813 229.956 12.6006 230.595 13.2393C231.234 13.8779 231.553 14.6393 231.553 15.5359V19.0729V34.3509C231.553 42.1127 227.512 45.9691 219.431 45.9077C211.412 45.7848 207.396 41.425 207.396 32.828C207.396 24.0468 210.834 19.5273 217.712 19.2694C220.954 19.2694 223.41 20.6081 225.068 23.2854V12.2813H228.298ZM219.603 25.0662C216.103 25.0662 214.261 27.547 214.064 32.5087C214.003 37.7283 215.821 40.3442 219.505 40.3442C223.202 40.3442 225.044 37.7406 225.044 32.5087C224.921 27.5593 223.103 25.0662 219.603 25.0662Z" fill="#635BFF"/>
<path d="M235.827 15.8061C235.827 14.8481 236.158 14.0253 236.834 13.3252C237.497 12.6252 238.32 12.269 239.265 12.269H242.888L256.447 35.0878V12.2813H263.128V45.5147H256.066L242.508 22.6959V45.5147H235.827V15.8061Z" fill="#0F0B4A"/>
<path d="M290.798 37.5809C290.036 40.5039 288.759 42.6409 286.978 43.9795C284.878 45.3796 282.397 46.0796 279.536 46.0796C271.7 45.8217 267.795 41.3022 267.795 32.521C267.795 23.7398 271.737 19.3186 279.634 19.2449C287.85 19.2449 291.694 24.3048 291.191 34.4246H274.476C274.734 38.3669 276.453 40.3442 279.634 40.3442C281.157 40.3442 282.557 39.7425 283.834 38.5266C284.412 37.888 285.136 37.5687 286.033 37.5687H290.798V37.5809ZM284.301 29.7454C283.92 26.3067 282.324 24.5873 279.524 24.5873C276.723 24.5873 275.065 26.3067 274.562 29.7454H284.301Z" fill="#0F0B4A"/>
<path d="M308.348 45.5024L303.767 37.2862L299.088 45.5024H291.167L299.567 32.2262L291.645 19.6256H299.088L303.571 27.4611L308.532 19.0606C309.11 17.9185 310.055 17.3412 311.394 17.3412H317.314L307.574 32.3368L316.171 45.5147H308.348V45.5024Z" fill="#0F0B4A"/>
<path d="M323.184 45.1708C320.728 44.9497 319.537 43.4023 319.598 40.5407V12.2813H322.938C323.761 12.2813 324.498 12.6006 325.137 13.2393C325.775 13.8779 326.095 14.6393 326.095 15.5359V19.6378H330.013V21.0748C330.013 22.0327 329.693 22.8064 329.055 23.4082C328.416 24.01 327.655 24.317 326.77 24.317H326.107V38.6371C326.107 39.7179 326.746 40.2582 328.011 40.2582H330.013V45.2199C327.9 45.4164 325.628 45.3918 323.184 45.1708Z" fill="#0F0B4A"/>
</g>
<defs>
<clipPath id="clip0">
<rect width="330" height="58.1154" fill="white"/>
</clipPath>
</defs>
</svg>
