<svg width="34" height="24" viewBox="0 0 34 24" fill="none" xmlns="http://www.w3.org/2000/svg">
<rect x="0.5" y="0.5" width="33" height="23" rx="3.5" fill="white" stroke="#F2F2F7"/>
<path fill-rule="evenodd" clip-rule="evenodd" d="M24.1995 7.78684C26.4121 11.7064 25.0285 16.6774 21.1091 18.8899C17.1897 21.1023 12.2188 19.7185 10.0062 15.7989C7.79365 11.8793 9.17728 6.90834 13.0967 4.69587C17.016 2.4834 21.9869 3.86728 24.1995 7.78684ZM17.3194 8.19366C18.4979 7.97541 19.5066 8.07541 19.8982 9.10008C20.1858 9.84994 19.9898 10.4018 19.5445 10.8076C20.4515 10.7754 21.0804 11.331 21.3296 12.2914C21.586 13.7311 20.6404 14.3984 19.1649 14.9001L19.5702 16.3746L18.6786 16.6216L18.2787 15.1669C18.0477 15.2312 17.8102 15.2944 17.5645 15.3576L17.9667 16.8193L17.076 17.0658L16.6688 15.5888L14.8706 16.082L14.7556 14.9708C14.7556 14.9708 15.4179 14.7976 15.4037 14.791C15.6559 14.7206 15.6732 14.5213 15.6581 14.404L14.5566 10.4027C14.473 10.2317 14.2978 10.0556 13.9364 10.1554C13.9437 10.1402 13.2891 10.3353 13.2891 10.3353L13.0274 9.38591L14.8241 8.88486L14.4224 7.42409L15.3135 7.17736L15.7076 8.60907C15.9446 8.53786 16.1831 8.46703 16.4173 8.40213L16.0255 6.97967L16.917 6.73269L17.3194 8.19366ZM16.6537 11.3844C17.266 11.225 18.5983 10.878 18.3455 9.95842C18.0863 9.01787 16.8199 9.40449 16.1999 9.59379L16.1999 9.59379C16.1296 9.61524 16.0676 9.63416 16.0164 9.64832L16.5052 11.4238C16.5475 11.4121 16.5976 11.399 16.6537 11.3844L16.6537 11.3844ZM17.4643 14.2298C18.197 14.0377 19.7995 13.6177 19.5204 12.6047C19.2352 11.5688 17.712 12.03 16.9687 12.2551L16.9687 12.2551L16.9687 12.2551C16.8856 12.2802 16.8124 12.3024 16.7516 12.3192L17.29 14.2762C17.3397 14.2624 17.3984 14.247 17.4641 14.2298L17.4643 14.2298Z" fill="#F7931A"/>
</svg>
