<svg width="203" height="150" viewBox="0 0 203 150" fill="none" xmlns="http://www.w3.org/2000/svg">
<rect x="3" y="3" width="197" height="144" rx="20" fill="white" stroke="#F2F2F7" stroke-width="6"/>
<path d="M147.044 98.9827C146.834 98.9827 146.664 98.8126 146.664 98.6028V52.8542C146.664 52.674 146.791 52.5187 146.967 52.4822L154.957 50.8303C155.193 50.7815 155.414 50.9615 155.414 51.2022V98.6028C155.414 98.8126 155.244 98.9827 155.034 98.9827H147.044Z" fill="#1C4396"/>
<path d="M46.6791 99.9508C43.4891 99.9508 40.6409 99.1762 38.1345 97.6267C35.6281 96.0773 33.6457 93.9581 32.1874 91.2694C30.7291 88.5808 30 85.5276 30 82.1096C30 78.6919 30.7291 75.6614 32.1874 73.0183C33.6457 70.3295 35.6281 68.2332 38.1345 66.7294C40.6409 65.18 43.4891 64.4052 46.6791 64.4052C49.2311 64.4052 51.4641 64.8837 53.378 65.8407C54.9154 66.6094 56.2176 67.6279 57.2843 68.8964C57.5247 69.1821 58.0264 69.0196 58.0264 68.6462V52.0319C58.0264 51.8518 58.1528 51.6964 58.3292 51.66L66.3194 50.008C66.555 49.9593 66.776 50.1392 66.776 50.3799V98.7508C66.776 98.9606 66.6059 99.1305 66.3963 99.1305H59.2954C59.114 99.1305 58.958 99.0023 58.9228 98.8242L58.1945 95.1304C58.1305 94.8051 57.704 94.7084 57.4918 94.963C56.4722 96.1861 55.1919 97.2791 53.6514 98.2418C51.8742 99.3811 49.5501 99.9508 46.6791 99.9508ZM48.5247 92.2948C51.35 92.2948 53.6514 91.3607 55.4288 89.4922C57.2516 87.5783 58.163 85.1401 58.163 82.178C58.163 79.2159 57.2516 76.8007 55.4288 74.9322C53.6514 73.0183 51.35 72.0612 48.5247 72.0612C45.7449 72.0612 43.4435 72.9953 41.6207 74.8638C39.7978 76.7323 38.8864 79.1475 38.8864 82.1096C38.8864 85.0718 39.7978 87.5099 41.6207 89.4238C43.4435 91.3378 45.7449 92.2948 48.5247 92.2948Z" fill="#1C4396"/>
<path d="M88.1111 99.9586C84.6933 99.9586 81.6628 99.2294 79.0197 97.7713C76.3766 96.313 74.3032 94.2622 72.7991 91.6191C71.2954 88.976 70.5435 85.9228 70.5435 82.4594C70.5435 78.9503 71.2726 75.8287 72.7308 73.0944C74.2348 70.3601 76.2855 68.2411 78.8829 66.7372C81.526 65.1878 84.6249 64.4131 88.1795 64.4131C91.5063 64.4131 94.4455 65.1422 96.9975 66.6005C99.5495 68.0588 101.532 70.0639 102.945 72.6159C104.403 75.1222 105.132 77.925 105.132 81.0238C105.132 81.525 105.109 82.0492 105.064 82.5959C105.064 83.034 105.049 83.4867 105.02 83.9542C105.007 84.1521 104.842 84.3049 104.644 84.3049H79.6317C79.4115 84.3049 79.237 84.4917 79.2589 84.7107C79.5032 87.1611 80.4034 89.0995 81.9591 90.5255C83.6451 92.0293 85.6731 92.7812 88.0429 92.7812C89.82 92.7812 91.3011 92.3937 92.4861 91.6191C93.6456 90.8462 94.5218 89.8707 95.1148 88.6929C95.1811 88.5609 95.3148 88.4747 95.4626 88.4747H103.597C103.851 88.4747 104.034 88.7193 103.953 88.9606C103.303 90.9137 102.283 92.7113 100.894 94.3533C99.4356 96.085 97.6128 97.4523 95.4253 98.4548C93.2834 99.4573 90.8455 99.9586 88.1111 99.9586ZM88.1795 71.5222C86.0376 71.5222 84.1464 72.1374 82.5058 73.3678C80.9664 74.4798 79.9486 76.1533 79.4524 78.389C79.4009 78.6209 79.5806 78.8365 79.8181 78.8365H95.8419C96.0608 78.8365 96.2351 78.6517 96.213 78.434C96.0066 76.3889 95.1972 74.7456 93.7847 73.5046C92.2809 72.183 90.4124 71.5222 88.1795 71.5222Z" fill="#1C4396"/>
<path d="M126.175 99.9586C122.757 99.9586 119.726 99.2294 117.083 97.7713C114.44 96.313 112.366 94.2622 110.863 91.6191C109.359 88.976 108.607 85.9228 108.607 82.4594C108.607 78.9503 109.336 75.8287 110.794 73.0944C112.298 70.3601 114.349 68.2411 116.946 66.7372C119.589 65.1878 122.688 64.4131 126.243 64.4131C129.57 64.4131 132.509 65.1422 135.061 66.6005C137.613 68.0588 139.595 70.0639 141.008 72.6159C142.466 75.1222 143.195 77.925 143.195 81.0238C143.195 81.525 143.172 82.0492 143.127 82.5959C143.127 83.034 143.112 83.4867 143.083 83.9542C143.071 84.1521 142.905 84.3049 142.707 84.3049H117.695C117.475 84.3049 117.3 84.4917 117.322 84.7107C117.567 87.1611 118.467 89.0995 120.022 90.5255C121.709 92.0293 123.736 92.7812 126.106 92.7812C127.883 92.7812 129.365 92.3937 130.549 91.6191C131.709 90.8462 132.585 89.8707 133.178 88.6929C133.245 88.5609 133.378 88.4747 133.526 88.4747H141.661C141.915 88.4747 142.097 88.7193 142.017 88.9606C141.367 90.9137 140.346 92.7113 138.957 94.3533C137.499 96.085 135.676 97.4523 133.489 98.4548C131.347 99.4573 128.909 99.9586 126.175 99.9586ZM126.243 71.5222C124.101 71.5222 122.21 72.1374 120.569 73.3678C119.03 74.4798 118.012 76.1533 117.516 78.389C117.464 78.6209 117.644 78.8365 117.881 78.8365H133.905C134.124 78.8365 134.298 78.6517 134.276 78.434C134.07 76.3889 133.26 74.7456 131.848 73.5046C130.344 72.183 128.476 71.5222 126.243 71.5222Z" fill="#1C4396"/>
<path d="M166.88 98.9944C170.133 98.9944 172.77 96.357 172.77 93.1036C172.77 89.8503 170.133 87.2129 166.88 87.2129C163.626 87.2129 160.989 89.8503 160.989 93.1036C160.989 96.357 163.626 98.9944 166.88 98.9944Z" fill="#2C71F0"/>
</svg>
