<svg width="22" height="22" viewBox="0 0 22 22" fill="none" xmlns="http://www.w3.org/2000/svg">
<g clip-path="url(#clip0)">
<path d="M21.1693 9.08742L12.1957 9.08699C11.7995 9.08699 11.4783 9.40814 11.4783 9.8044V12.6711C11.4783 13.0672 11.7995 13.3885 12.1957 13.3885H17.2491C16.6957 14.8245 15.6629 16.0272 14.3452 16.7913L16.5 20.5214C19.9565 18.5224 22 15.0149 22 11.0885C22 10.5294 21.9588 10.1298 21.8764 9.67974C21.8137 9.33784 21.5169 9.08742 21.1693 9.08742Z" fill="#167EE6"/>
<path d="M10.9999 17.6956C8.52689 17.6956 6.36797 16.3444 5.20846 14.345L1.47852 16.4949C3.37666 19.7847 6.9325 22 10.9999 22C12.9953 22 14.878 21.4628 16.4999 20.5265V20.5214L14.3452 16.7913C13.3595 17.3629 12.219 17.6956 10.9999 17.6956Z" fill="#12B347"/>
<path d="M16.5 20.5265V20.5214L14.3452 16.7913C13.3596 17.3629 12.2192 17.6957 11 17.6957V22C12.9953 22 14.8782 21.4628 16.5 20.5265Z" fill="#0F993E"/>
<path d="M4.30435 11C4.30435 9.78102 4.63702 8.64058 5.20854 7.65501L1.4786 5.50511C0.537195 7.1219 0 8.99955 0 11C0 13.0005 0.537195 14.8781 1.4786 16.4949L5.20854 14.345C4.63702 13.3594 4.30435 12.219 4.30435 11Z" fill="#FFD500"/>
<path d="M10.9999 4.30435C12.6126 4.30435 14.0939 4.87738 15.2509 5.83056C15.5363 6.06568 15.9512 6.04871 16.2127 5.78725L18.2438 3.75611C18.5405 3.45946 18.5193 2.97387 18.2024 2.69895C16.2639 1.0172 13.7416 0 10.9999 0C6.9325 0 3.37666 2.21534 1.47852 5.50511L5.20846 7.65501C6.36797 5.65555 8.5269 4.30435 10.9999 4.30435Z" fill="#FF4B26"/>
<path d="M15.251 5.83056C15.5364 6.06568 15.9513 6.04871 16.2128 5.78725L18.2439 3.75611C18.5405 3.45946 18.5194 2.97387 18.2025 2.69895C16.264 1.01716 13.7417 0 11 0V4.30435C12.6126 4.30435 14.094 4.87738 15.251 5.83056Z" fill="#D93F21"/>
</g>
<defs>
<clipPath id="clip0">
<rect width="22" height="22" fill="white"/>
</clipPath>
</defs>
</svg>
