<svg width="18" height="18" viewBox="0 0 18 18" fill="none" xmlns="http://www.w3.org/2000/svg">
<path fill-rule="evenodd" clip-rule="evenodd" d="M15.75 13.5V14.25C15.75 15.075 15.075 15.75 14.25 15.75H3.75C2.9175 15.75 2.25 15.075 2.25 14.25V3.75C2.25 2.925 2.9175 2.25 3.75 2.25H14.25C15.075 2.25 15.75 2.925 15.75 3.75V4.5H9C8.1675 4.5 7.5 5.175 7.5 6V12C7.5 12.825 8.1675 13.5 9 13.5H15.75ZM9 12H16.5V5.99999H9V12ZM10.8749 9C10.8749 9.6225 11.3774 10.125 11.9999 10.125C12.6224 10.125 13.1249 9.6225 13.1249 9C13.1249 8.3775 12.6224 7.875 11.9999 7.875C11.3774 7.875 10.8749 8.3775 10.8749 9Z" fill="#4A485F"/>
</svg>
