<svg width="18" height="18" viewBox="0 0 18 18" fill="none" xmlns="http://www.w3.org/2000/svg">
<path fill-rule="evenodd" clip-rule="evenodd" d="M3.00012 1.5H15.0001C15.8251 1.5 16.5001 2.175 16.5001 3V15C16.5001 15.825 15.8251 16.5 15.0001 16.5H3.00012C2.17512 16.5 1.50012 15.825 1.50012 15V3C1.50012 2.175 2.17512 1.5 3.00012 1.5ZM3.00019 15H6.00019V12H3.00019V15ZM6.00019 10.5H3.00019V7.49999H6.00019V10.5ZM3.00019 5.99999H6.00019V2.99999H3.00019V5.99999ZM10.5002 15H7.50019V12H10.5002V15ZM7.50019 10.5H10.5002V7.49999H7.50019V10.5ZM10.5002 5.99999H7.50019V2.99999H10.5002V5.99999ZM12.0002 15H15.0002V12H12.0002V15ZM15.0002 10.5H12.0002V7.49999H15.0002V10.5ZM12.0002 5.99999H15.0002V2.99999H12.0002V5.99999Z" fill="#4A485F"/>
</svg>
