<svg width="34" height="24" viewBox="0 0 34 24" fill="none" xmlns="http://www.w3.org/2000/svg">
<rect x="0.5" y="0.5" width="33" height="23" rx="3.5" fill="white" stroke="#F2F2F7"/>
<path fill-rule="evenodd" clip-rule="evenodd" d="M28.4238 8.0199C28.4238 8.03086 28.361 8.05762 28.2843 8.07938C27.8848 8.19272 27.5626 8.56457 27.4697 9.01967C27.4332 9.19834 27.4378 9.3181 27.4891 9.52606C27.5917 9.94142 27.8766 10.2591 28.2644 10.3907C28.3494 10.4196 28.6186 10.4668 28.6571 10.4595C28.6635 10.4583 28.7293 10.4503 28.8033 10.4418C29.0738 10.4104 29.2876 10.3053 29.4839 10.1072C29.7902 9.79794 29.9168 9.34698 29.8123 8.93741C29.752 8.70119 29.5826 8.43026 29.406 8.28753C29.301 8.20267 29.0669 8.0816 28.9663 8.06005C28.9246 8.05114 28.8904 8.03398 28.8904 8.02193C28.8904 8.00986 28.7854 8 28.6571 8C28.5288 8 28.4238 8.00895 28.4238 8.0199ZM28.4203 8.78227C28.4871 8.83467 28.5116 9.00503 28.4652 9.09453C28.4168 9.18801 28.2857 9.26575 28.1908 9.25732L28.1088 9.25003L28.1019 9.40768C28.0958 9.54949 28.0999 9.56663 28.1427 9.57808C28.169 9.58506 28.1904 9.60787 28.1904 9.62872C28.1904 9.65884 28.1615 9.66741 28.0504 9.67025C27.9734 9.67222 27.8974 9.67489 27.8816 9.6762C27.8295 9.68051 27.8326 9.59287 27.8851 9.57887C27.932 9.56637 27.9338 9.55139 27.9338 9.16786C27.9338 8.94896 27.9408 8.7627 27.9493 8.75398C27.9579 8.74524 28.055 8.73834 28.1651 8.73862C28.3221 8.73905 28.3773 8.74848 28.4203 8.78227ZM28.7532 8.78572C28.7638 8.80536 28.8216 8.94198 28.8816 9.08929C28.9417 9.23663 28.9976 9.35715 29.0059 9.35715C29.0142 9.35715 29.0351 9.31698 29.0522 9.26786C29.0794 9.18986 29.108 9.11994 29.1956 8.91667C29.2069 8.89048 29.2266 8.83958 29.2394 8.80358C29.2605 8.74412 29.2733 8.7381 29.3785 8.7381C29.5104 8.7381 29.5534 8.77736 29.4777 8.82865C29.4296 8.86129 29.4271 8.88012 29.4271 9.2156C29.4271 9.54732 29.4299 9.56913 29.4738 9.58334C29.528 9.60091 29.537 9.66594 29.4854 9.66827C29.4662 9.66913 29.3979 9.66984 29.3338 9.66984C29.2696 9.66984 29.2066 9.66913 29.1938 9.66827C29.1525 9.66546 29.1689 9.59777 29.2171 9.57144C29.2591 9.54849 29.2637 9.52179 29.2634 9.30275C29.263 9.01922 29.2608 9.02072 29.1088 9.40958C29.0162 9.64627 28.994 9.68499 28.961 9.66699C28.9396 9.65532 28.9079 9.5996 28.8904 9.54313C28.873 9.48668 28.8515 9.42977 28.8428 9.41668C28.8341 9.40358 28.8083 9.34198 28.7855 9.27977C28.7627 9.21756 28.7358 9.16667 28.7256 9.16667C28.7155 9.16667 28.7028 9.14794 28.6974 9.12501C28.692 9.10208 28.687 9.18275 28.6863 9.30425C28.6851 9.52434 28.7007 9.5742 28.7792 9.60115C28.8028 9.60925 28.8029 9.61858 28.7798 9.64708C28.7542 9.67884 28.6874 9.68411 28.5113 9.66825C28.4726 9.66477 28.4969 9.58996 28.5404 9.57834C28.5844 9.56658 28.5871 9.54587 28.5871 9.21236C28.5871 8.8832 28.5839 8.85708 28.5404 8.83334C28.5148 8.81931 28.4938 8.7916 28.4938 8.77174C28.4938 8.72169 28.7254 8.73419 28.7532 8.78572ZM28.1126 8.84922C28.1041 8.85793 28.0971 8.93293 28.0971 9.01589C28.0971 9.16627 28.0973 9.16667 28.1645 9.16667C28.2478 9.16667 28.3236 9.10413 28.3433 9.01905C28.3548 8.96941 28.3447 8.94096 28.2987 8.89405C28.2427 8.83691 28.1473 8.81391 28.1126 8.84922ZM11.6108 10.6566C11.3942 10.8051 11.1307 11.1599 11.0888 11.3593C11.075 11.4249 11.0637 11.5634 11.0637 11.6672V11.8558L10.9295 11.922C10.8193 11.9763 10.7954 11.9987 10.7954 12.0476C10.7954 12.1009 10.8036 12.1063 10.8739 12.0993C10.9171 12.095 10.9783 12.0981 11.0099 12.1062L11.0674 12.1209L11.0597 12.8318C11.0508 13.6551 11.054 13.6429 10.8501 13.6429C10.74 13.6429 10.737 13.6448 10.737 13.7143V13.7857H11.297H11.857V13.7143C11.857 13.6438 11.8555 13.6429 11.7313 13.6429C11.6423 13.6429 11.5895 13.6296 11.5505 13.5974L11.4954 13.5519L11.4874 12.8442C11.481 12.2718 11.4854 12.1325 11.5108 12.1155C11.528 12.1039 11.6362 12.0962 11.7512 12.0983L11.9604 12.102L11.98 12.0249C12.0178 11.876 12.0097 11.8703 11.7401 11.8572L11.4954 11.8453L11.4876 11.7143C11.4834 11.6423 11.487 11.4736 11.4957 11.3394C11.5083 11.1459 11.5221 11.0796 11.5625 11.0183C11.6384 10.9034 11.7209 10.8824 11.841 10.9474C11.8948 10.9764 11.968 11.0001 12.0038 11.0001L12.0689 11L12.0621 10.8036L12.0554 10.6072L11.8791 10.6003C11.721 10.5941 11.6934 10.5999 11.6108 10.6566ZM5.02408 10.7596C5.00583 10.7711 4.99661 10.8113 5.00114 10.8597C5.00863 10.9398 5.00982 10.9406 5.14532 10.9529C5.36913 10.9732 5.37037 10.9767 5.37037 11.5946V12.1124L5.59787 12.1008C5.72298 12.0944 5.8274 12.0876 5.8299 12.0856C5.83237 12.0837 5.83622 11.872 5.83846 11.6152C5.84341 11.0428 5.84483 11.034 5.93865 11.0006C6.06302 10.9562 6.26803 10.9446 6.39209 10.975C6.6748 11.0442 6.85071 11.3459 6.79408 11.6645C6.76183 11.8461 6.71985 11.9289 6.60771 12.0323C6.48953 12.1412 6.37818 12.1699 6.08647 12.1665C5.95571 12.165 5.8382 12.1653 5.82537 12.1671C5.81254 12.169 5.73656 12.1689 5.65655 12.1669C5.57654 12.165 5.49779 12.1719 5.48155 12.1823C5.45159 12.2014 5.42592 12.204 5.1662 12.2152C5.086 12.2186 5.02037 12.2323 5.02037 12.2456C5.02037 12.259 5.02657 12.2635 5.03416 12.2558C5.04176 12.248 5.09426 12.2559 5.15087 12.2733C5.20745 12.2907 5.259 12.2962 5.26541 12.2856C5.27183 12.2751 5.29794 12.272 5.32347 12.2788C5.34897 12.2856 5.36416 12.3005 5.35723 12.312C5.35028 12.3234 5.36103 12.3264 5.38112 12.3185C5.40119 12.3106 5.43227 12.3166 5.45014 12.3318C5.47184 12.3501 5.64694 12.3617 5.97671 12.3666C6.64367 12.3764 6.79394 12.3362 7.04419 12.0809C7.23097 11.8903 7.29283 11.7344 7.29353 11.4524C7.29416 11.2055 7.25629 11.0933 7.12819 10.9625C7.04713 10.8798 6.849 10.7863 6.75425 10.786C6.7133 10.7858 6.67316 10.7748 6.66507 10.7614C6.64731 10.7321 5.07049 10.7303 5.02408 10.7596ZM17.956 10.7724C17.9239 10.8578 17.9567 10.8926 18.0813 10.9054C18.298 10.9277 18.2844 10.8529 18.2927 12.0663C18.3014 13.3285 18.2922 13.5072 18.2141 13.5869C18.1725 13.6292 18.1334 13.6429 18.0531 13.6429C17.9507 13.6429 17.9471 13.6453 17.9471 13.7148V13.7867L18.4429 13.7803L18.9387 13.7738V13.7143C18.9387 13.6606 18.9273 13.6534 18.8221 13.6408C18.6805 13.6238 18.6332 13.604 18.6086 13.5518C18.5868 13.5054 18.5588 11.6837 18.579 11.6253C18.5925 11.586 18.6126 11.623 18.7726 11.9828C18.8062 12.0585 18.8337 12.1254 18.8337 12.1315C18.8337 12.1377 18.8705 12.2239 18.9154 12.3231C18.9603 12.4223 18.9971 12.5071 18.9971 12.5116C18.9971 12.516 19.033 12.5982 19.0768 12.6943C19.1207 12.7904 19.1953 12.9655 19.2425 13.0834C19.2897 13.2012 19.3427 13.3298 19.3602 13.3691C19.3778 13.4084 19.4275 13.5262 19.4709 13.631C19.5492 13.8203 19.5503 13.8215 19.6422 13.8286L19.7347 13.8357L19.8466 13.5428C19.9081 13.3818 19.9721 13.2179 19.9889 13.1786C20.0056 13.1393 20.0476 13.0375 20.0823 12.9524C20.1169 12.8673 20.164 12.7548 20.1869 12.7024C20.2248 12.6158 20.4219 12.1511 20.5856 11.7625C20.6213 11.6776 20.6623 11.6043 20.6767 11.5994C20.6958 11.5929 20.7009 11.8547 20.6958 12.5712L20.6887 13.5519L20.6336 13.5974C20.5981 13.6267 20.5422 13.6429 20.4761 13.6429C20.3779 13.6429 20.3737 13.6458 20.3737 13.7143V13.7857H20.9454H21.5171V13.7143C21.5171 13.6455 21.5133 13.6429 21.4113 13.6429C21.2603 13.6429 21.1964 13.5922 21.176 13.4564C21.1545 13.3131 21.1495 11.4427 21.1698 11.1755C21.1784 11.0635 21.1974 10.9595 21.2122 10.9445C21.2269 10.9294 21.299 10.9116 21.3722 10.905C21.502 10.8932 21.5054 10.8911 21.5054 10.8214V10.75L21.104 10.7435C20.7365 10.7375 20.7007 10.7406 20.68 10.7802C20.6675 10.8039 20.5736 11.0319 20.4712 11.2867C20.303 11.7057 20.1201 12.1424 19.978 12.4643C19.9491 12.5298 19.9121 12.6155 19.8958 12.6548C19.7925 12.9027 19.7388 13.0045 19.7211 12.9856C19.7101 12.9739 19.6524 12.8518 19.5928 12.7143C19.4644 12.4183 19.4389 12.3596 19.3695 12.2024C19.2807 12.0012 19.0652 11.496 19.0039 11.3453C18.972 11.2667 18.9225 11.1488 18.8939 11.0834C18.8654 11.0179 18.8279 10.9268 18.8106 10.881C18.7555 10.7347 18.7665 10.7381 18.3518 10.7381C18.0399 10.7381 17.9665 10.7445 17.956 10.7724ZM16.1154 11.093L15.9521 11.1847L15.9606 11.5031C15.9701 11.8609 15.9672 11.8682 15.7914 11.9316C15.7053 11.9627 15.6343 12.0528 15.6685 12.0877C15.6772 12.0965 15.734 12.1018 15.7948 12.0993C15.8556 12.0969 15.9178 12.1032 15.933 12.1134C15.953 12.1267 15.9627 12.3351 15.968 12.8695C15.9764 13.7047 15.973 13.6891 16.1685 13.7878C16.2521 13.83 16.3008 13.8368 16.4686 13.8298C16.6646 13.8216 16.6704 13.8197 16.7384 13.7381C16.8579 13.595 16.8797 13.5516 16.8642 13.4883C16.8458 13.4137 16.7652 13.4084 16.6807 13.4762C16.6017 13.5396 16.5423 13.5362 16.4718 13.4644C16.3953 13.3863 16.3842 13.2816 16.3839 12.6395C16.3837 12.176 16.3877 12.1226 16.4235 12.1086C16.4453 12.1 16.5559 12.095 16.6693 12.0973C16.7826 12.0996 16.8792 12.0975 16.8838 12.0925C16.8885 12.0875 16.896 12.0351 16.9005 11.9762L16.9087 11.8691L16.6521 11.8572L16.3954 11.8453L16.4042 11.4489C16.4126 11.0684 16.411 11.0515 16.3649 11.0263C16.2985 10.99 16.2987 10.99 16.1154 11.093ZM8.05205 11.7464C7.58664 11.9299 7.39893 12.2351 7.40121 12.8048C7.40259 13.1498 7.4865 13.4083 7.65443 13.5849C7.83197 13.7716 7.99113 13.8334 8.29444 13.8334C8.54744 13.8334 8.68238 13.8037 8.86828 13.7075C8.99493 13.6418 9.02046 13.6175 9.0479 13.5357C9.06549 13.4834 9.07508 13.4271 9.0692 13.4107C9.05039 13.3584 8.9498 13.3787 8.81389 13.4622C8.6212 13.5806 8.48148 13.6096 8.33823 13.5611C8.17621 13.5062 8.04899 13.402 7.97533 13.2639C7.90885 13.1392 7.83328 12.8337 7.86209 12.8061C7.87124 12.7974 8.13596 12.7851 8.45037 12.7787C8.76479 12.7724 9.04566 12.7594 9.07454 12.7499C9.12294 12.7339 9.12704 12.7184 9.1269 12.5508C9.12653 12.0032 8.83675 11.6857 8.34372 11.6928C8.23876 11.6943 8.13642 11.7131 8.05205 11.7464ZM9.74538 11.7225C9.70688 11.7377 9.66488 11.7568 9.65204 11.765C9.63921 11.7732 9.53157 11.7989 9.41288 11.822C9.20073 11.8634 9.19704 11.8653 9.19704 11.9321C9.19704 11.9991 9.19891 12 9.33438 12C9.54497 12 9.54704 12.008 9.54704 12.8203C9.54704 13.6141 9.54917 13.6059 9.33767 13.6309C9.20157 13.647 9.19704 13.6498 9.19704 13.7171V13.7866L9.77454 13.7802L10.352 13.7738L10.3518 13.7143C10.3516 13.6587 10.342 13.6539 10.2048 13.6404C10.0392 13.6243 10.0221 13.613 9.99003 13.4987C9.95932 13.3895 9.97479 12.4878 10.0092 12.3809C10.0635 12.2121 10.2449 12.0768 10.3382 12.1355C10.3586 12.1484 10.3964 12.1927 10.422 12.2341C10.4632 12.3004 10.4798 12.3087 10.562 12.3035L10.6554 12.2976L10.6724 12.0238C10.6926 11.7004 10.6867 11.6905 10.475 11.6905C10.3006 11.6905 10.1794 11.7521 10.0785 11.8921C10.0364 11.9505 9.99467 11.9986 9.98566 11.9991C9.97663 11.9996 9.96613 11.9331 9.96233 11.8512C9.95547 11.7043 9.95451 11.7024 9.88538 11.6987C9.84688 11.6967 9.78388 11.7075 9.74538 11.7225ZM12.7273 11.7495C12.279 11.9237 12.0899 12.2406 12.0907 12.8167C12.0911 13.1672 12.1744 13.4103 12.3598 13.6021C12.5245 13.7724 12.637 13.817 12.932 13.8286C13.3435 13.8448 13.6726 13.7249 13.7376 13.5348C13.7554 13.483 13.7651 13.4271 13.7592 13.4107C13.7403 13.3582 13.6396 13.3788 13.5022 13.4632C13.4286 13.5085 13.3145 13.5577 13.2485 13.5726C13.1429 13.5964 13.113 13.5936 12.9963 13.5488C12.8073 13.4762 12.6926 13.3549 12.6014 13.131C12.5703 13.0547 12.5358 12.8229 12.553 12.8059C12.5616 12.7973 12.826 12.7851 13.1404 12.7787C13.4548 12.7724 13.7369 12.7591 13.7672 12.7492C13.8209 12.7316 13.822 12.7257 13.8115 12.5144C13.799 12.2651 13.7498 12.1011 13.6457 11.9614C13.5069 11.7752 13.3639 11.7116 13.0587 11.7002C12.9077 11.6946 12.8444 11.704 12.7273 11.7495ZM14.7554 11.7273C14.7004 11.745 14.5954 11.7938 14.5221 11.8359C14.1058 12.0745 13.9724 12.3151 13.9747 12.8228C13.9765 13.2169 14.0553 13.4364 14.2659 13.6346C14.4246 13.7838 14.5481 13.8215 14.8787 13.8215C15.0908 13.8215 15.1915 13.8105 15.2937 13.7763C15.4422 13.7266 15.5437 13.6284 15.5437 13.5344C15.5437 13.4443 15.4562 13.4371 15.2955 13.5142C14.9076 13.7001 14.5688 13.4843 14.4322 12.9643C14.3937 12.8176 14.3912 12.5116 14.4273 12.3618C14.4823 12.1341 14.6761 11.9524 14.8641 11.9524C14.9948 11.9524 15.1458 12.0035 15.2177 12.0721C15.2752 12.1269 15.2871 12.157 15.2871 12.2477C15.2871 12.3079 15.2976 12.3585 15.3104 12.3601C15.5001 12.3844 15.5114 12.3722 15.5274 12.126C15.5349 12.0109 15.5473 11.8953 15.555 11.8691C15.5648 11.8359 15.5537 11.8118 15.5184 11.7896C15.3689 11.6955 14.9588 11.662 14.7554 11.7273ZM22.4915 11.7041C22.4841 11.7116 22.4433 11.7234 22.4008 11.7302C22.3583 11.737 22.2737 11.7684 22.2128 11.7999C21.9838 11.9183 21.8389 12.0977 21.7485 12.3748C21.6783 12.5901 21.6925 13.0541 21.7763 13.2841C21.8441 13.4703 21.9989 13.652 22.1742 13.751C22.2943 13.8189 22.3096 13.8215 22.6021 13.8215C22.896 13.8215 22.9101 13.8191 23.0571 13.7454C23.3038 13.6217 23.5044 13.3765 23.5891 13.0953C23.6315 12.9546 23.6451 12.6828 23.6192 12.4932C23.5637 12.0858 23.36 11.8452 22.9621 11.7173C22.8766 11.6898 22.5154 11.6797 22.4915 11.7041ZM24.2121 11.7316C24.1607 11.7517 24.0295 11.7919 23.9204 11.8208C23.7406 11.8684 23.7221 11.8787 23.7221 11.9307C23.7221 11.9834 23.7324 11.9887 23.8488 11.9955C23.9341 12.0004 23.9854 12.016 24.0056 12.0431C24.0511 12.1042 24.0502 13.5202 24.0046 13.5839C23.9824 13.6149 23.9327 13.6332 23.8471 13.642C23.7326 13.6537 23.7221 13.6598 23.7221 13.7143V13.7738L24.2529 13.7802L24.7837 13.7867V13.7148C24.7837 13.6447 24.7809 13.6429 24.6707 13.6429C24.4775 13.6429 24.4701 13.6233 24.4611 13.0869C24.4569 12.8361 24.4605 12.5519 24.4692 12.4553C24.4837 12.2935 24.4923 12.2715 24.5779 12.1768C24.7523 11.9837 24.9612 11.9543 25.1238 12.1C25.2762 12.2366 25.2839 12.269 25.2847 12.7857C25.2851 13.0411 25.2814 13.3679 25.2766 13.5119L25.2677 13.7738H25.6382H26.0087V13.7143C26.0087 13.6614 25.9979 13.654 25.9102 13.6475C25.8373 13.6421 25.7994 13.6243 25.7644 13.5788C25.7196 13.5207 25.7171 13.4842 25.7171 12.9027C25.7171 12.5359 25.7065 12.2375 25.6907 12.1627C25.6243 11.8466 25.3669 11.6698 25.0145 11.6981C24.7762 11.7173 24.7235 11.7368 24.61 11.8477C24.5511 11.9053 24.4931 11.9524 24.4812 11.9524C24.4693 11.9524 24.4564 11.8961 24.4525 11.8274C24.4457 11.707 24.4429 11.7023 24.3754 11.6987C24.3369 11.6966 24.2634 11.7114 24.2121 11.7316ZM26.7787 11.7196C26.5183 11.809 26.3171 11.948 26.2202 12.1056C25.9438 12.5553 26.0017 13.3027 26.3375 13.6185C26.4973 13.7688 26.6259 13.8171 26.8968 13.8285C27.1499 13.8392 27.3449 13.8031 27.5325 13.7107C27.6477 13.6539 27.6968 13.5887 27.7162 13.4668C27.7298 13.3814 27.7294 13.381 27.6451 13.381C27.5985 13.381 27.5604 13.3902 27.5604 13.4015C27.5604 13.4314 27.2837 13.565 27.1826 13.5839C26.9547 13.6266 26.6533 13.4041 26.5694 13.131C26.5452 13.0524 26.5247 12.9453 26.5238 12.8929L26.5221 12.7976L27.0938 12.7838C27.411 12.7761 27.6917 12.7587 27.7246 12.7447C27.7817 12.7203 27.7835 12.7129 27.7769 12.5323C27.7678 12.2808 27.7004 12.0602 27.5939 11.9332C27.5054 11.8277 27.3625 11.7381 27.2827 11.7381C27.2573 11.7381 27.23 11.7274 27.2221 11.7143C27.2037 11.6839 26.8711 11.6879 26.7787 11.7196ZM27.8442 11.7588C27.827 11.77 27.8165 11.8048 27.8209 11.836C27.8271 11.8808 27.845 11.8945 27.905 11.9004C27.9531 11.9051 27.9942 11.9279 28.0161 11.962C28.0566 12.0251 28.2201 12.4319 28.3423 12.7738C28.5558 13.3712 28.6191 13.5467 28.6752 13.6977L28.7354 13.8597L28.6923 13.9834C28.583 14.2973 28.4814 14.5113 28.4006 14.598C28.3531 14.6489 28.3048 14.6903 28.2932 14.69C28.2816 14.6897 28.2316 14.6522 28.182 14.6066C28.0842 14.5167 28.0548 14.5082 28.0004 14.5536C27.9724 14.577 27.8871 14.8325 27.8871 14.8929C27.8871 14.8998 27.9212 14.9267 27.9629 14.9527C28.0677 15.0179 28.2734 15.0164 28.413 14.9495C28.6004 14.8596 28.635 14.7984 28.9164 14.0596C28.9813 13.8893 29.0435 13.7286 29.0547 13.7024C29.066 13.6762 29.1289 13.5102 29.1945 13.3334C29.2931 13.0678 29.3953 12.8106 29.568 12.3929C29.7292 12.0033 29.7871 11.9159 29.8938 11.901C29.9412 11.8944 29.9521 11.8796 29.9521 11.8215V11.75H29.5554H29.1588L29.1515 11.8274C29.1449 11.8969 29.1504 11.9048 29.2051 11.9048C29.2709 11.9048 29.4038 11.9657 29.4038 11.996C29.4038 12.0326 29.2341 12.542 29.1186 12.8523C29.0356 13.0752 28.9907 13.1668 28.9671 13.1619C28.9486 13.158 28.9037 13.0691 28.8672 12.9643C28.4825 11.8583 28.4935 11.9257 28.6945 11.9048C28.8033 11.8935 28.8088 11.8895 28.8088 11.8215V11.75L28.3421 11.7442C28.0854 11.7409 27.8614 11.7475 27.8442 11.7588ZM8.42214 11.95C8.56216 12.0232 8.61838 12.1289 8.6727 12.4212C8.68047 12.4631 8.6751 12.5196 8.6608 12.5468C8.63585 12.5944 8.61926 12.5962 8.25675 12.5899L7.87871 12.5834L7.88293 12.4322C7.8907 12.1533 8.06467 11.9098 8.25881 11.9062C8.30102 11.9054 8.37452 11.9251 8.42214 11.95ZM13.1735 11.985C13.2618 12.0538 13.3369 12.2256 13.357 12.4048C13.3783 12.5944 13.3764 12.5953 12.9557 12.5953C12.6862 12.5953 12.5795 12.5871 12.5616 12.5651C12.5282 12.5241 12.5882 12.237 12.6561 12.1139C12.7687 11.9094 13.0018 11.8514 13.1735 11.985ZM22.796 11.956C23.0042 12.0588 23.1424 12.3545 23.1651 12.7458C23.1919 13.2065 23.0894 13.4802 22.8433 13.6055C22.7491 13.6535 22.694 13.652 22.5785 13.5985C22.1057 13.3793 21.9974 12.2491 22.4228 11.9738C22.5516 11.8905 22.6536 11.8856 22.796 11.956ZM27.0554 11.9375C27.1806 11.9909 27.2692 12.1224 27.3027 12.3046C27.3189 12.3925 27.3283 12.4911 27.3238 12.5238L27.3154 12.5834L26.9241 12.5899C26.4719 12.5974 26.4875 12.606 26.5344 12.3738C26.6095 12.002 26.8109 11.8333 27.0554 11.9375ZM5.36962 12.9337C5.36876 13.5903 5.373 13.5772 5.15353 13.5953L5.0087 13.6072V13.6905V13.7738H5.61537H6.22204L6.22927 13.6846L6.23653 13.5953H6.10808C6.0069 13.5953 5.96612 13.5834 5.91588 13.5393L5.85211 13.4833L5.84159 12.9619L5.83109 12.4405L5.64867 12.4361C5.54833 12.4336 5.44466 12.4199 5.41829 12.4055C5.3706 12.3794 5.37037 12.3819 5.36962 12.9337Z" fill="#CD0D1F"/>
<path fill-rule="evenodd" clip-rule="evenodd" d="M24.6702 14.1183C24.4939 14.1336 24.4331 14.189 24.4331 14.3345C24.4331 14.3847 24.4241 14.4314 24.413 14.4384C24.3859 14.4555 24.2794 14.4553 24.1582 14.4378C24.1006 14.4295 24.0301 14.4353 23.9916 14.4516C23.9398 14.4735 23.9147 14.4733 23.8792 14.4507C23.8527 14.4338 23.8073 14.4283 23.7711 14.4375L23.7086 14.4535L23.715 14.816L23.7215 15.1785L23.8206 15.1858L23.9198 15.1932V14.9582C23.9198 14.7318 23.9222 14.7208 23.9853 14.6592C24.0318 14.6137 24.0753 14.5952 24.1355 14.5952C24.1822 14.5952 24.2262 14.5856 24.2333 14.5739C24.2408 14.5615 24.285 14.5626 24.339 14.5766L24.4317 14.6006L24.4383 14.8896L24.4448 15.1785L24.5315 15.1859C24.6375 15.1948 24.6409 15.1846 24.649 14.8333C24.6543 14.6032 24.6583 14.5839 24.6988 14.591C24.788 14.6067 24.8566 14.5729 24.8488 14.517C24.843 14.4751 24.8223 14.4618 24.7481 14.4523C24.6653 14.4418 24.6539 14.4325 24.647 14.3702C24.6364 14.2754 24.6939 14.2343 24.8104 14.2534C24.8947 14.2671 24.8998 14.2644 24.8998 14.2062C24.8998 14.123 24.8472 14.1029 24.6702 14.1183ZM18.312 14.2063C18.3035 14.215 18.2965 14.3959 18.2965 14.6081C18.2965 15.0459 18.2926 15.056 18.1286 15.0434C18.035 15.0362 18.0276 15.04 18.021 15.0989C18.0149 15.1526 18.0261 15.1662 18.096 15.1897C18.2256 15.2334 18.4074 15.1892 18.4765 15.0973C18.4964 15.0708 18.5052 14.9289 18.5057 14.625L18.5065 14.1904H18.417C18.3678 14.1904 18.3206 14.1976 18.312 14.2063ZM20.6018 14.3809C20.6056 14.3482 20.6132 14.308 20.6186 14.2916C20.6239 14.2752 20.6657 14.2619 20.7115 14.2619C20.7955 14.2619 20.8011 14.268 20.8266 14.3869C20.8394 14.4461 20.8504 14.4523 20.9427 14.4523C21.0155 14.4523 21.049 14.4635 21.0594 14.4911C21.0822 14.5518 21.0272 14.5989 20.942 14.5914C20.9 14.5877 20.8574 14.5931 20.8473 14.6034C20.8235 14.6277 20.8184 14.9885 20.8414 15.0264C20.8514 15.0429 20.9007 15.0539 20.9552 15.0517C21.0743 15.0469 21.1088 15.1033 21.0278 15.1703C20.9316 15.2498 20.6878 15.2057 20.6317 15.0988C20.6178 15.0723 20.6065 14.9482 20.6065 14.823C20.6065 14.6139 20.6028 14.5952 20.5615 14.5952C20.5032 14.5952 20.4415 14.5319 20.4578 14.4887C20.4647 14.4702 20.4984 14.4518 20.5326 14.4478C20.5791 14.4423 20.5966 14.4254 20.6018 14.3809ZM26.8486 14.2916C26.8432 14.308 26.8356 14.3482 26.8318 14.3809C26.8271 14.4211 26.8083 14.4428 26.774 14.4478C26.7095 14.4572 26.6703 14.5044 26.6943 14.544C26.7102 14.5703 26.7505 14.5862 26.819 14.5934C26.8286 14.5944 26.8365 14.6909 26.8365 14.8079C26.8365 14.9249 26.8466 15.0478 26.859 15.0811C26.9028 15.1988 27.1551 15.2552 27.2578 15.1703C27.3378 15.1042 27.3039 15.0374 27.1992 15.0547C27.0836 15.0738 27.0668 15.0388 27.0747 14.794L27.0815 14.5833L27.1649 14.5907C27.2562 14.5988 27.318 14.55 27.2948 14.4884C27.2855 14.4635 27.2484 14.4523 27.1755 14.4523C27.0793 14.4523 27.0698 14.4472 27.0698 14.3948C27.0698 14.2874 27.0468 14.2619 26.9499 14.2619C26.8975 14.2619 26.8542 14.2746 26.8486 14.2916ZM18.8098 14.7515C18.8098 14.5765 18.8194 14.4759 18.8378 14.4571C18.8532 14.4414 18.8878 14.4285 18.9148 14.4285C19.0015 14.4285 19.0198 14.4746 19.0198 14.6936C19.0198 15.0376 19.0809 15.1165 19.2723 15.0195L19.3815 14.9642L19.3931 14.7023L19.4048 14.4404H19.4981H19.5915L19.5979 14.804C19.6051 15.2123 19.6023 15.2191 19.441 15.1752C19.38 15.1586 19.3366 15.1605 19.2871 15.1821C19.1418 15.2453 18.9507 15.2001 18.8586 15.0807C18.8157 15.025 18.8098 14.9852 18.8098 14.7515ZM19.9415 14.4615C19.8448 14.5045 19.8125 14.5512 19.8087 14.6531C19.8045 14.7671 19.843 14.803 20.0382 14.8676C20.1769 14.9135 20.1981 14.9281 20.1981 14.9776C20.1981 15.0643 20.0998 15.0903 19.9529 15.0423C19.8494 15.0086 19.8317 15.0082 19.8011 15.0394C19.7476 15.0941 19.7961 15.1566 19.916 15.1874C20.0498 15.2218 20.1275 15.2208 20.2507 15.1832C20.3866 15.1417 20.4304 15.0908 20.4304 14.9741C20.4304 14.8626 20.3776 14.8085 20.2226 14.7614C20.0117 14.6972 19.9637 14.6442 20.059 14.5805C20.1117 14.5453 20.1261 14.5452 20.2274 14.5794C20.3214 14.611 20.343 14.6118 20.3705 14.584C20.4137 14.5403 20.3882 14.4808 20.3139 14.452C20.2293 14.4191 20.025 14.4244 19.9415 14.4615ZM21.7085 14.9768C21.705 14.7087 21.7073 14.4756 21.7136 14.4589C21.7279 14.4208 21.8065 14.4196 21.8647 14.4567C21.8988 14.4785 21.9301 14.4785 22.0013 14.4567C22.2216 14.3894 22.4317 14.4535 22.505 14.6105C22.5507 14.7081 22.5546 14.8952 22.5132 14.9957C22.4409 15.1712 22.2272 15.2444 21.9785 15.1787L21.9155 15.1621L21.9085 15.3131L21.9015 15.4642H21.8081H21.7148L21.7085 14.9768ZM22.9104 14.4625C22.7425 14.5237 22.6831 14.6187 22.6832 14.8261C22.6834 15.0968 22.8176 15.2042 23.1498 15.1996C23.3914 15.1963 23.4828 15.165 23.4722 15.0892C23.4641 15.0308 23.4529 15.0295 23.2183 15.0602C23.1188 15.0732 23.0712 15.0681 23.0148 15.0383C22.9362 14.9968 22.8819 14.9187 22.9051 14.8804C22.9131 14.8672 23.0451 14.8571 23.2091 14.8571C23.4988 14.8571 23.4989 14.8571 23.5135 14.7976C23.5448 14.6707 23.4591 14.523 23.3198 14.4636C23.2184 14.4204 23.0276 14.4199 22.9104 14.4625ZM24.9465 14.8216C24.9465 14.6357 25.0165 14.5207 25.1617 14.4683C25.4844 14.3518 25.8069 14.5043 25.7827 14.7619L25.7748 14.8452L25.4948 14.8515C25.1461 14.8592 25.1446 14.8598 25.1908 14.951C25.2432 15.0543 25.373 15.0894 25.5585 15.0503C25.6818 15.0243 25.7046 15.0253 25.7365 15.0578C25.7698 15.0918 25.7698 15.0986 25.7365 15.1326C25.6767 15.1936 25.3918 15.228 25.2446 15.192C25.0298 15.1395 24.9465 15.0358 24.9465 14.8216ZM26.1481 14.4559C25.9809 14.5192 25.9182 14.6356 25.9306 14.8599C25.9382 14.9969 25.9494 15.0326 26.0027 15.0894C26.065 15.1558 26.2213 15.2142 26.3366 15.2142C26.3693 15.2142 26.448 15.1969 26.5115 15.1757C26.5989 15.1465 26.6305 15.123 26.6414 15.0787C26.664 14.9866 26.6194 14.9615 26.5164 15.0084C26.3879 15.0671 26.3255 15.0738 26.2554 15.0369C26.1654 14.9894 26.1275 14.9026 26.1435 14.7811C26.167 14.6019 26.3332 14.5177 26.4865 14.6071C26.5186 14.6258 26.5685 14.6415 26.5973 14.642C26.6734 14.6432 26.669 14.5377 26.5907 14.4854C26.5182 14.4369 26.2463 14.4187 26.1481 14.4559ZM22.2514 14.6284C22.357 14.7361 22.3462 14.9242 22.2288 15.0236C22.1722 15.0716 22.0692 15.0623 21.9857 15.0016C21.9153 14.9505 21.9117 14.9405 21.9183 14.814C21.9246 14.6919 21.9321 14.6755 22.0045 14.6259C22.1061 14.5562 22.1814 14.557 22.2514 14.6284ZM25.3642 14.7382C25.5725 14.7382 25.6091 14.7136 25.526 14.6298C25.4341 14.5371 25.3289 14.5358 25.2315 14.6263C25.1352 14.7157 25.1618 14.7382 25.3642 14.7382ZM23.2483 14.6298C23.3314 14.7136 23.2947 14.7382 23.0865 14.7382C22.8841 14.7382 22.8574 14.7157 22.9537 14.6263C23.0512 14.5358 23.1563 14.5371 23.2483 14.6298Z" fill="black"/>
</svg>
