<svg width="22" height="22" viewBox="0 0 22 22" fill="none" xmlns="http://www.w3.org/2000/svg">
<path fill-rule="evenodd" clip-rule="evenodd" d="M10.9997 1.83325C5.93967 1.83325 1.83301 5.93992 1.83301 10.9999C1.83301 16.0599 5.93967 20.1666 10.9997 20.1666C16.0597 20.1666 20.1663 16.0599 20.1663 10.9999C20.1663 5.93992 16.0597 1.83325 10.9997 1.83325ZM10.9997 4.58325C12.5214 4.58325 13.7497 5.81159 13.7497 7.33325C13.7497 8.85492 12.5214 10.0833 10.9997 10.0833C9.47802 10.0833 8.24969 8.85492 8.24969 7.33325C8.24969 5.81159 9.47802 4.58325 10.9997 4.58325ZM5.49969 14.6483C6.68219 16.4266 8.70802 17.5999 10.9997 17.5999C13.2914 17.5999 15.3172 16.4266 16.4997 14.6483C16.4722 12.8241 12.8239 11.8249 10.9997 11.8249C9.16636 11.8249 5.52719 12.8241 5.49969 14.6483Z" fill="#3E7EFF"/>
</svg>
