<svg width="40" height="28" viewBox="0 0 40 28" fill="none" xmlns="http://www.w3.org/2000/svg">
<rect x="0.5" y="0.5" width="39" height="27" rx="3.5" fill="white" stroke="#F2F2F7"/>
<path d="M20.5 6C25.1942 6 29 9.80579 29 14.5C29 19.1942 25.194 23 20.5 23C15.806 23 12 19.1952 12 14.5C12 9.80477 15.8053 6 20.5 6Z" fill="#53AE94"/>
<path d="M21.5495 13.3673V12.1029H24.441V10.1763H16.5673V12.1029H19.4592V13.3663C17.1089 13.4743 15.3418 13.9397 15.3418 14.4973C15.3418 15.0549 17.1098 15.5204 19.4592 15.629V19.6793H21.5502V15.6287C23.8962 15.5204 25.6598 15.0553 25.6598 14.4982C25.6598 13.9411 23.8962 13.476 21.5502 13.3677L21.5495 13.3673ZM21.5502 15.2856V15.2846C21.4912 15.2883 21.1881 15.3065 20.5132 15.3065C19.9736 15.3065 19.594 15.2912 19.4602 15.2843V15.286C17.3838 15.194 15.8339 14.8324 15.8339 14.3998C15.8339 13.9671 17.384 13.606 19.4602 13.5139V14.9257C19.5962 14.9351 19.9852 14.958 20.522 14.958C21.1668 14.958 21.491 14.9312 21.5505 14.9257V13.5139C23.6228 13.6062 25.1692 13.9681 25.1692 14.3992C25.1692 14.8304 23.6222 15.1925 21.5505 15.2848" fill="white"/>
</svg>
